# xmcd CD database file
#
# Track frame offsets:
#	150
#	38064
#	62154
#	70548
#	95530
#	122999
#	143457
#	176056
#	201451
#	222813
#	261461
#
# Disc length: 3971 seconds
#
# Revision: 0
# Processed by: cddbd v1.5.1PL0 Copyright (c) Steve Scherf et al.
# Submitted via: CDex 1.51
#
DISCID=a70f810b
DTITLE=Ron Blake - Sonic Tonic
DYEAR=2005
DGENRE=Jazz
TTITLE0=Invocation
TTITLE1=Chasing the sun
TTITLE2=Your warm embrace
TTITLE3=Dance of passion
TTITLE4=The windmills of your mind
TTITLE5=Shades of brown
TTITLE6=Sonic Tonic
TTITLE7=Tom Blake (Revisited)
TTITLE8=Pure imagination
TTITLE9=Pissaro's floor
TTITLE10=Invocation
EXTD=YEAR: 2005
EXTT0=
EXTT1=
EXTT2=
EXTT3=
EXTT4=
EXTT5=
EXTT6=
EXTT7=
EXTT8=
EXTT9=
EXTT10=
PLAYORDER=
